<svg width="573" height="84" viewBox="0 0 573 84" fill="none" xmlns="http://www.w3.org/2000/svg">
<g clip-path="url(#clip0_152_27)">
<path d="M90.8 0V23.94H0L23.94 0H90.8Z" fill="#0872BA"/>
<path d="M90.8 29.8398H0V49.4098H90.8V29.8398Z" fill="#0872BA"/>
<path d="M90.8 75.2402H0V83.3702H90.8V75.2402Z" fill="#0872BA"/>
<path d="M90.8 55.3198H0V69.3298H90.8V55.3198Z" fill="#0872BA"/>
<path d="M141.33 62.8199C136.81 62.8199 133.02 61.8899 129.97 60.0399C126.92 58.1899 124.62 55.6099 123.06 52.3099C121.51 49.0099 120.73 45.2099 120.73 40.9099C120.73 36.6099 121.53 32.7099 123.14 29.3799C124.75 26.0599 127.09 23.4399 130.17 21.5299C133.25 19.6199 136.97 18.6699 141.33 18.6699C144.65 18.6699 147.54 19.2799 150 20.5099C152.46 21.7399 154.48 23.3899 156.09 25.4599C157.7 27.5299 158.88 29.8299 159.65 32.3699C160.41 34.8999 160.74 37.5299 160.63 40.2599C160.63 40.8599 160.6 41.4299 160.55 41.9799C160.5 42.5199 160.44 43.0999 160.39 43.6999H129.24C129.4 45.8799 129.96 47.8699 130.92 49.6699C131.87 51.4699 133.22 52.8999 134.97 53.9599C136.71 55.0199 138.87 55.5499 141.43 55.5499C142.85 55.5499 144.22 55.3699 145.56 55.0199C146.89 54.6699 148.09 54.0899 149.16 53.2999C150.22 52.5099 150.97 51.4899 151.41 50.2399H159.91C159.2 53.1299 157.93 55.5099 156.11 57.3899C154.28 59.2699 152.08 60.6499 149.49 61.5199C146.9 62.3899 144.19 62.8299 141.36 62.8299L141.33 62.8199ZM129.4 36.9899H152.29C152.24 34.8599 151.74 32.9699 150.82 31.3099C149.89 29.6499 148.61 28.3399 146.98 27.3899C145.35 26.4399 143.38 25.9599 141.09 25.9599C138.58 25.9599 136.5 26.4799 134.84 27.5099C133.18 28.5499 131.9 29.8899 131 31.5599C130.1 33.2199 129.57 35.0299 129.41 36.9999L129.4 36.9899Z" fill="black"/>
<path d="M186.54 62.8202C183.32 62.8202 180.53 62.2602 178.16 61.1402C175.79 60.0202 173.83 58.4802 172.27 56.5202C170.72 54.5602 169.56 52.2402 168.8 49.5702C168.04 46.9002 167.66 44.0102 167.66 40.9102C167.66 36.7102 168.37 32.9302 169.79 29.5502C171.21 26.1702 173.41 23.5102 176.41 21.5802C179.41 19.6502 183.19 18.6802 187.77 18.6802C190.22 18.6802 192.58 19.1202 194.84 19.9902C197.1 20.8602 199.02 22.2302 200.6 24.0802L200.68 19.2602H208.94V62.3402H200.6L200.52 57.0302C198.94 58.9402 196.92 60.3802 194.47 61.3602C192.02 62.3402 189.37 62.8302 186.54 62.8302V62.8202ZM188.17 55.3002C190.84 55.3002 193.09 54.6302 194.91 53.3002C196.74 51.9702 198.12 50.1802 199.08 47.9502C200.03 45.7202 200.51 43.2902 200.51 40.6702C200.51 38.0502 200.05 35.5102 199.12 33.3502C198.19 31.2002 196.82 29.4802 194.99 28.2002C193.16 26.9202 190.86 26.2802 188.08 26.2802C185.3 26.2802 182.88 26.9302 181.13 28.2402C179.39 29.5502 178.11 31.3102 177.29 33.5102C176.47 35.7202 176.06 38.1302 176.06 40.7402C176.06 43.3502 176.47 45.9302 177.29 48.1402C178.11 50.3502 179.42 52.0902 181.21 53.3702C183.01 54.6502 185.32 55.2902 188.16 55.2902L188.17 55.3002Z" fill="black"/>
<path d="M217.6 62.3298V55.5498L241.88 26.7798H217.6V19.2598H252.67V25.9598L228.23 54.8998H252.67V62.3398H217.6V62.3298Z" fill="black"/>
<path d="M259.7 62.3298V55.5498L283.98 26.7798H259.7V19.2598H294.77V25.9598L270.33 54.8998H294.77V62.3398H259.7V62.3298Z" fill="black"/>
<path d="M305.07 81.21V72.87C307.58 72.87 309.61 72.57 311.16 71.97C312.71 71.37 314.01 70.4 315.04 69.07C316.07 67.73 317.08 66 318.06 63.88L299.42 19.25H309.31L322.8 54.07L333.67 19.25H343.07L331.22 54.24C330.62 56.04 329.94 58.01 329.18 60.17C328.42 62.32 327.56 64.47 326.61 66.63C325.66 68.78 324.62 70.77 323.5 72.6C322.38 74.43 321.12 75.94 319.7 77.14C317.68 78.83 315.68 79.93 313.69 80.45C311.7 80.97 309.43 81.23 306.86 81.23H305.06L305.07 81.21Z" fill="black"/>
<path d="M364.58 62.8199C362.56 62.8199 360.55 62.6299 358.53 62.2499C356.51 61.8699 354.63 61.1899 352.89 60.2099C351.14 59.2299 349.67 57.9099 348.48 56.2499C347.28 54.5899 346.52 52.5299 346.19 50.0799H354.77C355.21 51.3899 355.98 52.4499 357.1 53.2699C358.22 54.0899 359.47 54.6899 360.86 55.0699C362.25 55.4499 363.63 55.6399 364.99 55.6399C365.81 55.6399 366.72 55.5899 367.73 55.4799C368.74 55.3699 369.7 55.1299 370.63 54.7399C371.56 54.3599 372.32 53.7999 372.92 53.0599C373.52 52.3199 373.82 51.3299 373.82 50.0799C373.82 49.0999 373.56 48.2799 373.04 47.6299C372.52 46.9799 371.81 46.4399 370.91 46.0399C370.01 45.6299 368.93 45.3199 367.68 45.0999C365.23 44.5599 362.6 44.0299 359.79 43.5099C356.98 42.9899 354.52 42.0799 352.39 40.7699C351.63 40.2799 350.95 39.7199 350.35 39.0899C349.75 38.4599 349.23 37.7399 348.8 36.9199C348.36 36.0999 348.04 35.2299 347.82 34.2999C347.6 33.3699 347.49 32.3699 347.49 31.2799C347.49 29.0499 347.94 27.1399 348.84 25.5599C349.74 23.9799 350.98 22.6899 352.56 21.6799C354.14 20.6699 355.94 19.9199 357.96 19.4299C359.98 18.9399 362.1 18.6899 364.34 18.6899C367.23 18.6899 369.84 19.1499 372.19 20.0799C374.53 21.0099 376.47 22.3699 377.99 24.1699C379.51 25.9699 380.41 28.2299 380.69 30.9499H372.76C372.43 29.4799 371.49 28.2899 369.94 27.3899C368.39 26.4899 366.44 26.0399 364.1 26.0399C363.28 26.0399 362.4 26.0899 361.44 26.1999C360.49 26.3099 359.57 26.5599 358.7 26.9399C357.83 27.3199 357.12 27.8499 356.57 28.5299C356.02 29.2099 355.75 30.0999 355.75 31.1899C355.75 32.2799 356.01 33.0999 356.53 33.8099C357.05 34.5199 357.81 35.0899 358.82 35.5299C359.83 35.9699 360.99 36.3199 362.29 36.5899C364.14 37.0299 366.15 37.4399 368.3 37.8199C370.45 38.1999 372.21 38.6099 373.57 39.0499C375.37 39.5399 376.91 40.2499 378.19 41.1799C379.47 42.1099 380.45 43.2799 381.13 44.6899C381.81 46.1099 382.15 47.8199 382.15 49.8399C382.15 52.4599 381.63 54.5999 380.6 56.2599C379.56 57.9199 378.19 59.2399 376.47 60.2199C374.75 61.1999 372.84 61.8799 370.75 62.2599C368.65 62.6399 366.59 62.8299 364.58 62.8299V62.8199Z" fill="black"/>
<path d="M409.38 62.8202C404.91 62.8202 401.12 61.9102 398.02 60.0802C394.91 58.2502 392.56 55.6802 390.95 52.3502C389.34 49.0302 388.54 45.1802 388.54 40.8202C388.54 36.4602 389.36 32.5502 390.99 29.2502C392.62 25.9502 395 23.3602 398.1 21.4802C401.21 19.6002 404.99 18.6602 409.46 18.6602C413.93 18.6602 417.72 19.6002 420.82 21.4802C423.93 23.3602 426.27 25.9602 427.85 29.2902C429.43 32.6102 430.22 36.4802 430.22 40.9002C430.22 45.3202 429.42 49.0202 427.81 52.3402C426.2 55.6702 423.86 58.2402 420.78 60.0702C417.7 61.9002 413.9 62.8102 409.38 62.8102V62.8202ZM409.38 55.3002C412.32 55.3002 414.71 54.6502 416.53 53.3402C418.36 52.0302 419.7 50.2702 420.58 48.0702C421.45 45.8602 421.89 43.4502 421.89 40.8402C421.89 38.2302 421.45 35.8302 420.58 33.6502C419.71 31.4702 418.36 29.7102 416.53 28.3802C414.7 27.0502 412.32 26.3802 409.38 26.3802C406.44 26.3802 404.12 27.0502 402.27 28.3802C400.42 29.7202 399.07 31.4702 398.22 33.6502C397.37 35.8302 396.95 38.2302 396.95 40.8402C396.95 43.4502 397.37 45.9402 398.22 48.1202C399.06 50.3002 400.41 52.0402 402.27 53.3502C404.12 54.6602 406.49 55.3102 409.38 55.3102V55.3002Z" fill="black"/>
<path d="M457.61 62.8202C453.09 62.8202 449.31 61.8902 446.29 60.0402C443.27 58.1902 441 55.6102 439.51 52.3102C438.01 49.0102 437.26 45.2102 437.26 40.9102C437.26 36.6102 438.04 32.8602 439.59 29.5102C441.14 26.1602 443.49 23.5202 446.62 21.5802C449.75 19.6502 453.64 18.6802 458.27 18.6802C461.43 18.6802 464.24 19.2102 466.69 20.2702C469.14 21.3302 471.14 22.8902 472.7 24.9302C474.25 26.9702 475.28 29.5202 475.77 32.5702H467.35C466.64 30.3402 465.46 28.7302 463.79 27.7502C462.13 26.7702 460.18 26.2802 457.95 26.2802C454.95 26.2802 452.57 26.9902 450.8 28.4102C449.03 29.8302 447.74 31.6502 446.92 33.8902C446.1 36.1302 445.69 38.4702 445.69 40.9202C445.69 43.3702 446.11 45.8502 446.96 48.0302C447.8 50.2102 449.11 51.9702 450.88 53.3002C452.65 54.6402 454.98 55.3002 457.87 55.3002C460.05 55.3002 462.07 54.8202 463.92 53.8702C465.77 52.9202 466.97 51.2902 467.52 49.0102H476.19C475.7 52.1702 474.55 54.7702 472.76 56.8202C470.96 58.8602 468.74 60.3802 466.1 61.3602C463.46 62.3402 460.64 62.8302 457.64 62.8302L457.61 62.8202Z" fill="black"/>
<path d="M488.51 13.53C486.88 13.53 485.55 13.03 484.55 12.02C483.54 11.01 483.04 9.72 483.04 8.14C483.04 6.56 483.56 5.27 484.59 4.26C485.62 3.25 486.93 2.75 488.51 2.75C489.98 2.75 491.28 3.25 492.39 4.26C493.51 5.27 494.07 6.56 494.07 8.14C494.07 9.72 493.54 11.02 492.48 12.02C491.42 13.03 490.1 13.53 488.52 13.53H488.51ZM484.34 62.33V19.25H492.76V62.33H484.34Z" fill="black"/>
<path d="M520.39 62.8202C517.17 62.8202 514.38 62.2602 512.01 61.1402C509.64 60.0202 507.68 58.4802 506.12 56.5202C504.57 54.5602 503.41 52.2402 502.65 49.5702C501.89 46.9002 501.51 44.0102 501.51 40.9102C501.51 36.7102 502.22 32.9302 503.64 29.5502C505.06 26.1702 507.26 23.5102 510.26 21.5802C513.26 19.6502 517.04 18.6802 521.62 18.6802C524.07 18.6802 526.43 19.1202 528.69 19.9902C530.95 20.8602 532.87 22.2302 534.45 24.0802L534.53 19.2602H542.79V62.3402H534.45L534.37 57.0302C532.79 58.9402 530.77 60.3802 528.32 61.3602C525.87 62.3402 523.22 62.8302 520.39 62.8302V62.8202ZM522.02 55.3002C524.69 55.3002 526.94 54.6302 528.76 53.3002C530.59 51.9702 531.98 50.1802 532.93 47.9502C533.88 45.7202 534.36 43.2902 534.36 40.6702C534.36 38.0502 533.9 35.5102 532.97 33.3502C532.04 31.2002 530.67 29.4802 528.84 28.2002C527.01 26.9202 524.71 26.2802 521.93 26.2802C519.15 26.2802 516.73 26.9302 514.98 28.2402C513.24 29.5502 511.96 31.3102 511.14 33.5102C510.32 35.7202 509.91 38.1302 509.91 40.7402C509.91 43.3502 510.32 45.9302 511.14 48.1402C511.96 50.3502 513.27 52.0902 515.06 53.3702C516.86 54.6502 519.17 55.2902 522.01 55.2902L522.02 55.3002Z" fill="black"/>
<path d="M567.07 62.3298C564.24 62.3298 561.92 62.0198 560.12 61.3898C558.32 60.7598 556.9 59.8498 555.87 58.6498C554.67 57.1198 553.91 55.1998 553.58 52.8898C553.25 50.5698 553.09 47.9398 553.09 44.9998V4.52979H561.51V44.2598C561.51 45.8998 561.54 47.4498 561.59 48.9198C561.64 50.3898 561.97 51.6198 562.57 52.5998C563.5 54.0698 565.48 54.8098 568.54 54.8098H572.05V62.3298H567.06H567.07Z" fill="black"/>
</g>
<defs>
<clipPath id="clip0_152_27">
<rect width="572.05" height="83.37" fill="white"/>
</clipPath>
</defs>
</svg>
